<?xml version="1.0" encoding="UTF-8" standalone="no"?><!-- Generator: Adobe Illustrator 22.1.0, SVG Export Plug-In . SVG Version: 6.00 Build 0)  --><svg xmlns="http://www.w3.org/2000/svg" enable-background="new 0 0 192.2 181.9" fill="#000000" id="图层_1" version="1.1" viewBox="0 0 192.2 181.9" x="0px" xml:space="preserve" y="0px">
<g id="change1_1">
	<path d="m66.6 26.9l-17.7-17.2s-2.8-3.4 1.9-7.3c4.7-3.8 5-2.1 6.5-1.1s26.4 25.5 26.4 25.5-17.1 0.1-17.1 0.1zm59 0.6l17.8-17.2s2.8-3.4-1.9-7.3c-4.7-3.8-5-2.1-6.5-1.1s-26.4 25.6-26.4 25.6h17zm66.6 31.9c-0.6-27-24.1-32.1-24.1-32.1s-120-1-145 0c-25 7-23.1 32.1-23.1 32.1s0.3 53.6 0 80.7c2.7 27.1 23.6 31.4 23.6 31.4s8.3 0.2 14.4 0.2c0.6 1.8 1.1 10.3 10.6 10.3s10.6-10.3 10.6-10.3 69.3-0.3 75.1-0.3c0.3 2.9 1.8 10.7 11.2 10.6 9.5-0.2 10.1-11.2 10.1-11.2s3.2-0.3 12.8 0c22.4-4.2 23.7-30.5 23.7-30.5s-0.2-54 0.1-80.9zm-19.3 85.7c0 4.2-3.4 7.7-7.5 7.7h-136.6c-4.1 0-7.5-3.4-7.5-7.7v-90.4c0-4.2 3.4-7.7 7.5-7.7h136.6c4.2 0 7.5 3.4 7.5 7.7v90.4zm-137.2-64.9l40.1-7.7 3 15.1-39.8 7.7-3.3-15.1zm124.8 0l-40.1-7.7-3.1 15.1 39.8 7.7 3.4-15.1zm-81.7 37.4s8.8 15.9 18.6-5.1c9.5 20.5 19.9 5.4 19.9 5.4l5.9 3.9s-11.1 17.8-25.7 4.3c-12.4 13.5-25.3-4.3-25.3-4.3s6.6-4.2 6.6-4.2z" fill="#ffffff"/>
</g>
</svg>